:FULLY-SPECIFIED
:FORCE-ALL-JOINTS-BE-3DOF
:DEGREES
291
root 10.0655 16.9132 3.81005 6.14348 1.82206 3.11314
lfemur -2.40902 4.73097 -29.1165
ltibia 15.7517 0 0
lfoot -17.6771 3.96768 0
ltoes -1.81674 0 0
rfemur -37.0209 1.95783 14.2937
rtibia 39.7742 0 0
rfoot -21.5701 -9.98849 0
rtoes -20.871 0 0
lowerback -6.46632 -3.55409 -4.38526
upperback -0.0891811 -4.48987 2.1387
thorax 4.05221 -2.34063 4.21334
lowerneck -22.0571 -4.12182 -11.5396
upperneck 22.7922 -4.97501 11.4838
head 11.7052 -1.81631 5.42949
lclavicle 2.75864e-14 4.53172e-15 0
lhumerus -11.0697 -23.6458 86.1895
lradius 27.8234 0 0
lwrist 10.0079 0 0
lhand -15.6214 -22.536 0
lfingers 7.12502 0 0
lthumb 10.566 7.18687 0
rclavicle 2.75864e-14 4.53172e-15 0
rhumerus -47.5619 8.11202 -83.5062
rradius 40.6208 0 0
rwrist -23.4631 0 0
rhand -31.339 -29.2948 0
rfingers 7.12502 0 0
rthumb -4.6105 -59.226 0
292
root 10.066 16.9076 3.94832 6.1896 2.18745 3.19988
lfemur -1.49324 4.63594 -29.1093
ltibia 14.9248 0 0
lfoot -17.6116 3.74384 0
ltoes -1.67548 0 0
rfemur -37.5195 2.18969 14.0271
rtibia 38.286 0 0
rfoot -21.5889 -9.8382 0
rtoes -20.9303 0 0
lowerback -6.55488 -3.66199 -4.5064
upperback -0.0992635 -4.6218 2.13218
thorax 4.11321 -2.40923 4.25632
lowerneck -22.012 -4.16064 -11.5668
upperneck 22.8422 -5.03242 11.491
head 11.7251 -1.84564 5.42961
lclavicle 2.78132e-14 5.34922e-15 0
lhumerus -10.731 -24.295 86.2583
lradius 28.1716 0 0
lwrist 10.5201 0 0
lhand -15.6629 -22.4321 0
lfingers 7.12502 0 0
lthumb 10.5259 7.29172 0
rclavicle 2.78132e-14 5.34922e-15 0
rhumerus -47.6968 8.05243 -83.5238
rradius 40.3746 0 0
rwrist -23.3294 0 0
rhand -31.3504 -29.5843 0
rfingers 7.12502 0 0
rthumb -4.62151 -59.515 0
293
root 10.066 16.9011 4.08838 6.23604 2.53937 3.28607
lfemur -0.585851 4.54735 -29.0908
ltibia 14.1254 0 0
lfoot -17.536 3.52183 0
ltoes -1.56332 0 0
rfemur -37.9977 2.40885 13.7674
rtibia 36.9365 0 0
rfoot -21.6279 -9.71916 0
rtoes -20.9694 0 0
lowerback -6.64046 -3.76451 -4.62549
upperback -0.111486 -4.74647 2.12525
thorax 4.16956 -2.47402 4.29853
lowerneck -21.9563 -4.1974 -11.5966
upperneck 22.8805 -5.08774 11.5031
head 11.7385 -1.87394 5.43192
lclavicle 2.79106e-14 6.0673e-15 0
lhumerus -10.4492 -24.9375 86.3551
lradius 28.5375 0 0
lwrist 10.9835 0 0
lhand -15.6629 -22.3441 0
lfingers 7.12502 0 0
lthumb 10.5258 7.37801 0
rclavicle 2.79106e-14 6.0673e-15 0
rhumerus -47.8262 7.98485 -83.5322
rradius 40.1186 0 0
rwrist -23.1853 0 0
rhand -31.3442 -29.8055 0
rfingers 7.12502 0 0
rthumb -4.61556 -59.7361 0
294
root 10.0653 16.8938 4.2304 6.28218 2.87566 3.37158
lfemur 0.312186 4.46584 -29.0603
ltibia 13.3578 0 0
lfoot -17.4506 3.30268 0
ltoes -1.48483 0 0
rfemur -38.456 2.613 13.5166
rtibia 35.748 0 0
rfoot -21.6941 -9.63701 0
rtoes -20.986 0 0
lowerback -6.72235 -3.86124 -4.74192
upperback -0.125711 -4.86337 2.11803
thorax 4.2209 -2.53471 4.33986
lowerneck -21.8892 -4.23148 -11.629
upperneck 22.9063 -5.14015 11.5201
head 11.7448 -1.90083 5.43654
lclavicle 2.78695e-14 6.67372e-15 0
lhumerus -10.2279 -25.5713 86.4825
lradius 28.9222 0 0
lwrist 11.3918 0 0
lhand -15.6177 -22.2742 0
lfingers 7.12502 0 0
lthumb 10.5692 7.44321 0
rclavicle 2.78695e-14 6.67372e-15 0
rhumerus -47.9489 7.90863 -83.5298
rradius 39.8531 0 0
rwrist -23.0308 0 0
rhand -31.3183 -29.9494 0
rfingers 7.12502 0 0
rthumb -4.59054 -59.8802 0
295
root 10.0641 16.8855 4.3745 6.32741 3.19415 3.45623
lfemur 1.19993 4.39203 -29.0169
ltibia 12.6263 0 0
lfoot -17.3556 3.08744 0
ltoes -1.44458 0 0
rfemur -38.895 2.79986 13.2765
rtibia 34.7426 0 0
rfoot -21.7945 -9.59742 0
rtoes -20.9777 0 0
lowerback -6.79984 -3.95179 -4.85507
upperback -0.141798 -4.972 2.11064
thorax 4.26687 -2.59104 4.38017
lowerneck -21.8102 -4.26223 -11.6639
upperneck 22.9186 -5.18885 11.5423
head 11.7433 -1.92592 5.4436
lclavicle 2.76808e-14 7.15625e-15 0
lhumerus -10.0708 -26.1945 86.6425
lradius 29.3266 0 0
lwrist 11.739 0 0
lhand -15.5237 -22.2248 0
lfingers 7.12502 0 0
lthumb 10.6597 7.48477 0
rclavicle 2.76808e-14 7.15625e-15 0
rhumerus -48.0638 7.8231 -83.515
rradius 39.5789 0 0
rwrist -22.8658 0 0
rhand -31.2705 -30.0071 0
rfingers 7.12502 0 0
rthumb -4.54436 -59.9384 0
296
root 10.0623 16.8755 4.5203 6.37833 3.50168 3.54817
lfemur 2.10108 4.32162 -28.9712
ltibia 11.8795 0 0
lfoot -17.2639 2.8683 0
ltoes -1.42992 0 0
rfemur -39.3129 2.98205 13.021
rtibia 33.8602 0 0
rfoot -21.9203 -9.60452 0
rtoes -20.9472 0 0
lowerback -6.87791 -4.03668 -4.97373
upperback -0.16199 -5.07203 2.10046
thorax 4.30865 -2.64294 4.42124
lowerneck -21.7117 -4.29232 -11.7052
upperneck 22.9141 -5.23772 11.5727
head 11.7323 -1.95119 5.45423
lclavicle 2.72956e-14 7.54837e-15 0
lhumerus -9.98253 -26.8411 86.8386
lradius 29.7798 0 0
lwrist 12.0409 0 0
lhand -15.3647 -22.1906 0
lfingers 7.12502 0 0
lthumb 10.8128 7.50673 0
rclavicle 2.72956e-14 7.54837e-15 0
rhumerus -48.1785 7.72404 -83.4908
rradius 39.2812 0 0
rwrist -22.6839 0 0
rhand -31.1996 -29.976 0
rfingers 7.12502 0 0
rthumb -4.4759 -59.9082 0
297
root 10.0598 16.8632 4.66732 6.44099 3.80632 3.65408
lfemur 3.03573 4.25045 -28.9327
ltibia 11.0714 0 0
lfoot -17.1852 2.63776 0
ltoes -1.42528 0 0
rfemur -39.7078 3.17241 12.7268
rtibia 33.0263 0 0
rfoot -22.0558 -9.65484 0
rtoes -20.8993 0 0
lowerback -6.96142 -4.1168 -5.10564
upperback -0.188246 -5.1638 2.08527
thorax 4.34765 -2.6907 4.46461
lowerneck -21.5888 -4.32465 -11.7564
upperneck 22.8911 -5.29085 11.6138
head 11.711 -1.97868 5.46918
lclavicle 2.66859e-14 7.89154e-15 0
lhumerus -9.96227 -27.5406 87.0709
lradius 30.304 0 0
lwrist 12.3177 0 0
lhand -15.1324 -22.1647 0
lfingers 7.12502 0 0
lthumb 11.0366 7.51537 0
rclavicle 2.66859e-14 7.89154e-15 0
rhumerus -48.3004 7.60885 -83.4614
rradius 38.9475 0 0
rwrist -22.4801 0 0
rhand -31.1073 -29.8649 0
rfingers 7.12502 0 0
rthumb -4.38679 -59.7983 0
298
root 10.0567 16.8488 4.81555 6.51387 4.10775 3.77166
lfemur 3.99753 4.17928 -28.8987
ltibia 10.2139 0 0
lfoot -17.1155 2.39733 0
ltoes -1.43078 0 0
rfemur -40.0799 3.36899 12.4001
rtibia 32.2411 0 0
rfoot -22.1981 -9.74259 0
rtoes -20.8352 0 0
lowerback -7.04944 -4.19232 -5.24865
upperback -0.220005 -5.2478 2.06574
thorax 4.3838 -2.73454 4.50985
lowerneck -21.4442 -4.35896 -11.8162
upperneck 22.8515 -5.34772 11.6644
head 11.6805 -2.00809 5.488
lclavicle 2.58736e-14 8.18552e-15 0
lhumerus -10.0057 -28.2844 87.3365
lradius 30.8897 0 0
lwrist 12.5696 0 0
lhand -14.8345 -22.1467 0
lfingers 7.12502 0 0
lthumb 11.3235 7.5115 0
rclavicle 2.58736e-14 8.18552e-15 0
rhumerus -48.4282 7.47933 -83.4272
rradius 38.5819 0 0
rwrist -22.2564 0 0
rhand -30.9958 -29.6817 0
rfingers 7.12502 0 0
rthumb -4.27905 -59.6166 0
299
root 10.053 16.8326 4.96501 6.59551 4.40564 3.89858
lfemur 4.98012 4.10893 -28.8668
ltibia 9.31908 0 0
lfoot -17.0507 2.1485 0
ltoes -1.44658 0 0
rfemur -40.429 3.56985 12.0473
rtibia 31.5049 0 0
rfoot -22.3441 -9.86202 0
rtoes -20.7561 0 0
lowerback -7.14104 -4.26341 -5.40063
upperback -0.256706 -5.32455 2.04257
thorax 4.41702 -2.77469 4.55653
lowerneck -21.2806 -4.39495 -11.8836
upperneck 22.7969 -5.40781 11.7236
head 11.6417 -2.03914 5.51025
lclavicle 2.48808e-14 8.43005e-15 0
lhumerus -10.1085 -29.0638 87.6325
lradius 31.5274 0 0
lwrist 12.7969 0 0
lhand -14.4788 -22.1365 0
lfingers 7.12502 0 0
lthumb 11.6661 7.49594 0
rclavicle 2.48808e-14 8.43005e-15 0
rhumerus -48.5604 7.33726 -83.3887
rradius 38.1883 0 0
rwrist -22.0147 0 0
rhand -30.867 -29.4344 0
rfingers 7.12502 0 0
rthumb -4.15469 -59.3711 0
300
root 10.0487 16.8148 5.1157 6.6844 4.69969 4.03254
lfemur 5.97714 4.04016 -28.8344
ltibia 8.39883 0 0
lfoot -16.9866 1.8928 0
ltoes -1.47282 0 0
rfemur -40.7555 3.77303 11.6746
rtibia 30.8182 0 0
rfoot -22.4908 -10.0074 0
rtoes -20.6629 0 0
lowerback -7.23531 -4.33023 -5.55942
upperback -0.297787 -5.39452 2.01646
thorax 4.44725 -2.8114 4.60421
lowerneck -21.1009 -4.43233 -11.9575
upperneck 22.7291 -5.47061 11.7901
head 11.5958 -2.07154 5.5355
lclavicle 2.37295e-14 8.62486e-15 0
lhumerus -10.2663 -29.8702 87.9562
lradius 32.2075 0 0
lwrist 12.9996 0 0
lhand -14.0731 -22.1337 0
lfingers 7.12502 0 0
lthumb 12.0569 7.46951 0
rclavicle 2.37295e-14 8.62486e-15 0
rhumerus -48.6956 7.18444 -83.3461
rradius 37.7706 0 0
rwrist -21.7571 0 0
rhand -30.7231 -29.131 0
rfingers 7.12502 0 0
rthumb -4.01572 -59.0696 0
301
root 10.0438 16.7956 5.26761 6.77905 4.98957 4.17121
lfemur 6.98225 3.97378 -28.7989
ltibia 7.46516 0 0
lfoot -16.9193 1.63171 0
ltoes -1.50962 0 0
rfemur -41.0592 3.97658 11.2883
rtibia 30.1811 0 0
rfoot -22.6353 -10.1728 0
rtoes -20.557 0 0
lowerback -7.33131 -4.39296 -5.72287
upperback -0.342687 -5.45824 1.98807
thorax 4.47443 -2.84489 4.65245
lowerneck -20.9079 -4.47082 -12.0367
upperneck 22.6497 -5.5356 11.8631
head 11.5437 -2.10501 5.5633
lclavicle 2.24414e-14 8.76971e-15 0
lhumerus -10.4748 -30.695 88.3047
lradius 32.9205 0 0
lwrist 13.1779 0 0
lhand -13.6251 -22.138 0
lfingers 7.12502 0 0
lthumb 12.4884 7.43302 0
rclavicle 2.24414e-14 8.76971e-15 0
rhumerus -48.8325 7.02266 -83.3
rradius 37.3329 0 0
rwrist -21.4854 0 0
rhand -30.5662 -28.7793 0
rfingers 7.12502 0 0
rthumb -3.86416 -58.7201 0
302
root 10.0382 16.7754 5.42075 6.87797 5.27497 4.31228
lfemur 7.98909 3.91057 -28.7578
ltibia 6.53007 0 0
lfoot -16.8445 1.36676 0
ltoes -1.55715 0 0
rfemur -41.3404 4.17855 10.8948
rtibia 29.5941 0 0
rfoot -22.7745 -10.3527 0
rtoes -20.4393 0 0
lowerback -7.42813 -4.45175 -5.88885
upperback -0.390844 -5.51619 1.95811
thorax 4.49848 -2.87541 4.70082
lowerneck -20.7043 -4.51014 -12.1202
upperneck 22.5606 -5.60227 11.9415
head 11.4866 -2.13926 5.59321
lclavicle 2.10388e-14 8.86432e-15 0
lhumerus -10.7298 -31.5294 88.6752
lradius 33.6568 0 0
lwrist 13.3322 0 0
lhand -13.1428 -22.1492 0
lfingers 7.12502 0 0
lthumb 12.9531 7.38731 0
rclavicle 2.10388e-14 8.86432e-15 0
rhumerus -48.9697 6.85371 -83.2506
rradius 36.8791 0 0
rwrist -21.2018 0 0
rhand -30.3983 -28.3873 0
rfingers 7.12502 0 0
rthumb -3.70202 -58.3304 0
303
root 10.032 16.7543 5.57513 6.97968 5.55557 4.45343
lfemur 8.9913 3.85132 -28.7086
ltibia 5.60554 0 0
lfoot -16.7583 1.09945 0
ltoes -1.61553 0 0
rfemur -41.5991 4.37698 10.5003
rtibia 29.0574 0 0
rfoot -22.9055 -10.5412 0
rtoes -20.311 0 0
lowerback -7.52484 -4.50676 -6.0552
upperback -0.441697 -5.56888 1.92727
thorax 4.51935 -2.90318 4.74888
lowerneck -20.4929 -4.55 -12.2068
upperneck 22.4634 -5.67009 12.0241
head 11.4253 -2.17401 5.62478
lclavicle 1.95434e-14 8.90845e-15 0
lhumerus -11.0268 -32.3649 89.0649
lradius 34.407 0 0
lwrist 13.4624 0 0
lhand -12.6337 -22.1671 0
lfingers 7.12502 0 0
lthumb 13.4434 7.33317 0
rclavicle 1.95434e-14 8.90845e-15 0
rhumerus -49.1057 6.6794 -83.1984
rradius 36.4132 0 0
rwrist -20.9082 0 0
rhand -30.2215 -27.9631 0
rfingers 7.12502 0 0
rthumb -3.53131 -57.9086 0
304
root 10.0252 16.7327 5.73075 7.08268 5.83105 4.59235
lfemur 9.98254 3.79683 -28.6488
ltibia 4.70355 0 0
lfoot -16.6565 0.831281 0
ltoes -1.68491 0 0
rfemur -41.8354 4.56993 10.1111
rtibia 28.5713 0 0
rfoot -23.0252 -10.7324 0
rtoes -20.1732 0 0
lowerback -7.62051 -4.55818 -6.21978
upperback -0.494685 -5.61681 1.89622
thorax 4.53695 -2.92844 4.79621
lowerneck -20.2764 -4.59011 -12.2954
upperneck 22.3599 -5.73854 12.11
head 11.361 -2.20896 5.65759
lclavicle 1.79773e-14 8.90184e-15 0
lhumerus -11.3616 -33.1928 89.4709
lradius 35.1616 0 0
lwrist 13.5689 0 0
lhand -12.1058 -22.1914 0
lfingers 7.12502 0 0
lthumb 13.952 7.27145 0
rclavicle 1.79773e-14 8.90184e-15 0
rhumerus -49.2392 6.50151 -83.1437
rradius 35.9391 0 0
rwrist -20.6065 0 0
rhand -30.038 -27.5144 0
rfingers 7.12502 0 0
rthumb -3.35405 -57.4625 0
